<svg width="19" height="17" viewBox="0 0 19 17" fill="none" xmlns="http://www.w3.org/2000/svg">
<path d="M18.3086 15.5953L13.9336 6.84531C13.8817 6.74151 13.8019 6.65422 13.7032 6.59321C13.6044 6.5322 13.4907 6.49989 13.3746 6.49989C13.2586 6.49989 13.1448 6.5322 13.0461 6.59321C12.9473 6.65422 12.8675 6.74151 12.8156 6.84531L11.1195 10.2383C9.79007 10.1635 8.51093 9.7043 7.4375 8.91641C8.69694 7.57145 9.46004 5.83719 9.60078 4H11.5C11.6658 4 11.8247 3.93415 11.9419 3.81694C12.0592 3.69973 12.125 3.54076 12.125 3.375C12.125 3.20924 12.0592 3.05027 11.9419 2.93306C11.8247 2.81585 11.6658 2.75 11.5 2.75H7.125V1.5C7.125 1.33424 7.05915 1.17527 6.94194 1.05806C6.82473 0.940848 6.66576 0.875 6.5 0.875C6.33424 0.875 6.17527 0.940848 6.05806 1.05806C5.94085 1.17527 5.875 1.33424 5.875 1.5V2.75H1.5C1.33424 2.75 1.17527 2.81585 1.05806 2.93306C0.940848 3.05027 0.875 3.20924 0.875 3.375C0.875 3.54076 0.940848 3.69973 1.05806 3.81694C1.17527 3.93415 1.33424 4 1.5 4H8.34609C8.20689 5.53176 7.55668 6.97222 6.5 8.08984C5.84153 7.39505 5.33588 6.57005 5.01562 5.66797C4.98929 5.58926 4.94755 5.51659 4.89282 5.45419C4.8381 5.39179 4.7715 5.34092 4.69691 5.30453C4.62231 5.26815 4.54122 5.24699 4.45836 5.24228C4.3755 5.23758 4.29253 5.24942 4.2143 5.27713C4.13606 5.30483 4.06413 5.34784 4.00269 5.40364C3.94126 5.45944 3.89156 5.52692 3.85648 5.60214C3.8214 5.67736 3.80166 5.75881 3.7984 5.84174C3.79514 5.92467 3.80843 6.00742 3.8375 6.08516C4.21037 7.13974 4.79771 8.10562 5.5625 8.92188C4.38497 9.78718 2.96127 10.2526 1.5 10.25C1.33424 10.25 1.17527 10.3158 1.05806 10.4331C0.940848 10.5503 0.875 10.7092 0.875 10.875C0.875 11.0408 0.940848 11.1997 1.05806 11.3169C1.17527 11.4342 1.33424 11.5 1.5 11.5C3.31296 11.502 5.07396 10.8945 6.5 9.775C7.66373 10.6843 9.05293 11.2598 10.5188 11.4398L8.44062 15.5953C8.4039 15.6687 8.38198 15.7486 8.37614 15.8305C8.3703 15.9124 8.38064 15.9946 8.40658 16.0725C8.45896 16.2298 8.57167 16.3598 8.71992 16.434C8.86817 16.5082 9.03982 16.5204 9.1971 16.468C9.35438 16.4157 9.48442 16.3029 9.55859 16.1547L10.6359 14H16.1133L17.1906 16.1547C17.2426 16.2585 17.3224 16.3458 17.4212 16.4068C17.52 16.4678 17.6339 16.5001 17.75 16.5C17.8565 16.4999 17.9613 16.4727 18.0543 16.4207C18.1473 16.3688 18.2255 16.294 18.2815 16.2034C18.3374 16.1127 18.3693 16.0093 18.374 15.9029C18.3788 15.7964 18.3563 15.6906 18.3086 15.5953ZM11.2609 12.75L13.375 8.52266L15.4883 12.75H11.2609Z" fill="#FDFEFF"/>
</svg>
