<svg width="17" height="15" viewBox="0 0 17 15" fill="none" xmlns="http://www.w3.org/2000/svg">
<path d="M16.6922 5.56705L12.9422 9.31705C12.8249 9.43432 12.6659 9.50021 12.5 9.50021C12.3341 9.50021 12.1751 9.43432 12.0578 9.31705C11.9405 9.19977 11.8747 9.04071 11.8747 8.87486C11.8747 8.70901 11.9405 8.54995 12.0578 8.43267L14.7414 5.74986H11.6406C10.1161 5.74944 8.63475 6.25573 7.42941 7.18911C6.22407 8.1225 5.36315 9.43003 4.98203 10.9061C4.94059 11.0667 4.83706 11.2042 4.69421 11.2885C4.55136 11.3727 4.38089 11.3968 4.22031 11.3553C4.05973 11.3139 3.92219 11.2104 3.83795 11.0675C3.7537 10.9247 3.72965 10.7542 3.77109 10.5936C4.22079 8.84871 5.23809 7.30295 6.66281 6.19972C8.08752 5.0965 9.83871 4.49849 11.6406 4.49986H14.743L12.0578 1.81705C11.9997 1.75898 11.9537 1.69004 11.9223 1.61417C11.8908 1.5383 11.8747 1.45698 11.8747 1.37486C11.8747 1.29274 11.8908 1.21142 11.9223 1.13555C11.9537 1.05968 11.9997 0.990741 12.0578 0.932672C12.1751 0.815396 12.3341 0.749512 12.5 0.749512C12.5821 0.749512 12.6634 0.765687 12.7393 0.797113C12.8152 0.82854 12.8841 0.874603 12.9422 0.932672L16.6922 4.68267C16.7503 4.74072 16.7964 4.80965 16.8279 4.88552C16.8593 4.9614 16.8755 5.04272 16.8755 5.12486C16.8755 5.20699 16.8593 5.28832 16.8279 5.3642C16.7964 5.44007 16.7503 5.509 16.6922 5.56705ZM13.75 13.2499H1.875V3.87486C1.875 3.7091 1.80915 3.55013 1.69194 3.43292C1.57473 3.31571 1.41576 3.24986 1.25 3.24986C1.08424 3.24986 0.925269 3.31571 0.808058 3.43292C0.690848 3.55013 0.625 3.7091 0.625 3.87486V13.8749C0.625 14.0406 0.690848 14.1996 0.808058 14.3168C0.925269 14.434 1.08424 14.4999 1.25 14.4999H13.75C13.9158 14.4999 14.0747 14.434 14.1919 14.3168C14.3092 14.1996 14.375 14.0406 14.375 13.8749C14.375 13.7091 14.3092 13.5501 14.1919 13.4329C14.0747 13.3157 13.9158 13.2499 13.75 13.2499Z" fill="#474747"/>
</svg>
